<svg xmlns="http://www.w3.org/2000/svg" viewBox="0 0 375 375"><defs><style>.cls-1{fill:#fefefe;}.cls-2{fill:#c20000;}.cls-3{fill:#020202;}.cls-4{fill:#030303;}.cls-5{fill:#0b0b0b;}.cls-6{fill:#666;}.cls-7{fill:#101010;}.cls-8{fill:#5c5c5c;}.cls-9{fill:#060606;}.cls-10{fill:#191919;}.cls-11{fill:#909090;}.cls-12{fill:#121212;}.cls-13{fill:#040404;}.cls-14{fill:#3a3a3a;}.cls-15{fill:#3b3b3b;}.cls-16{fill:#2a2a2a;}.cls-17{fill:#dedede;}.cls-18{fill:#5a5a5a;}.cls-19{fill:#faeded;}.cls-20{fill:#f0f0f0;}.cls-21{fill:#0d0d0d;}.cls-22{fill:#d6d6d6;}.cls-23{fill:#111;}.cls-24{fill:#fafafa;}.cls-25{fill:#424242;}.cls-26{fill:#eee;}.cls-27{fill:#cacaca;}.cls-28{fill:#f1f1f1;}.cls-29{fill:#181818;}</style></defs><g id="Calque_2" data-name="Calque 2"><g id="Calque_1-2" data-name="Calque 1"><path class="cls-1" d="M.07,187.51q0-92-.07-184C0,.82.42,0,3.37,0Q187.59.14,371.79,0c2.78,0,3.21.67,3.21,3.29q-.12,184.19,0,368.38c0,2.52-.3,3.33-3.17,3.33Q187.43,374.85,3,375c-2.63,0-3-.6-3-3.1Q.14,279.7.07,187.51Z"/><path class="cls-2" d="M107.7,198.33c-3.73,0-7.46-.08-11.18,0-2.72.08-4.26-1-4.6-3.73a59,59,0,0,1,0-14.49c.35-2.85,2.13-4.12,4.84-4.13,7,0,13.93-.14,20.89,0,4.64.11,5.88,1.59,5.91,6.19,0,3.73,0,7.46,0,11.19,0,3.26-1.39,5.11-5,4.94S111.31,198.33,107.7,198.33Z"/><path class="cls-3" d="M267.15,194c.32-5.05.63-9.15.82-13.24.07-1.58.42-2.6,2.28-2.64,1.48,0,2.95-.43,4.44-.54,2.51-.19,5.11-.31,6.64,2.25a6.59,6.59,0,0,1-.34,7.74c-2.11,2.44-1.7,4.36-.14,6.42,1.94,2.58,0,3.35-1.71,4.42-2.48,1.62-2.1-1.06-2.87-1.93a19.65,19.65,0,0,1-1.26-2.26c-.51-.77-.7-2.08-2-1.78s-.87,1.58-1,2.48c-.2,2,.68,4.45-2.95,4.09s-1.37-3-1.88-4.49C267,194,267.15,193.51,267.15,194Z"/><path class="cls-3" d="M193.28,177.45c2.63.06,4.68.47,5.77,2.69,1.33,2.72,1.16,5.68-.76,7.72-2.11,2.25-1.45,3.94-.07,5.81,1.67,2.24.72,3.39-1.33,4.63-1.57.95-2.12.46-2.72-.94a36.79,36.79,0,0,0-1.89-3.63c-.42-.73-.79-1.66-1.93-1.32s-.77,1.38-.88,2.18c-.27,1.94,1.08,4.85-2.95,4.4-1.56-.17-2.23-.56-2.09-2.23.44-5.47.81-10.93,1.15-16.4.07-1.26.27-2.13,1.81-2.23C189.5,178,191.59,177.65,193.28,177.45Z"/><path class="cls-4" d="M215.46,192.41c-1.54,4.93-4.59,7.31-8.44,6.6-3.55-.66-5.57-4.09-5.49-9a18.87,18.87,0,0,1,1.84-8.66c1.51-2.9,3.73-4.63,7.19-4.17s5.05,3,5.57,6.13a35.78,35.78,0,0,1,0,6c-1.67,1.78-3.31,3.76-5.59.7-.85-2,0-4.21-1.08-7.23a13.48,13.48,0,0,0-1.18,8.62c.24,1.34,1.39,0,2.12-.16C212.24,191.07,213.72,192.29,215.46,192.41Z"/><path class="cls-3" d="M167.63,191.35c0-5.83,1.44-9.45,4.56-12.25a6.92,6.92,0,0,1,8.68-.66c2.25,1.35,2.7,3.74,2.25,6.27-.48,2.76-2.63,1.61-4.16,1.75-2.23.2-1.52-1.31-1.27-2.48.15-.71.6-1.54-.28-2-1.06-.54-1.62.36-2,1.09a14.23,14.23,0,0,0-1.61,9.38,2,2,0,0,0,1.57,1.88c1.25.2,1.92-.88,2.79-1.56s.58-3.51,3-1.77c2.13,1.55,1,3-.07,4.38-2.28,3.15-5.68,4.42-8.76,3.31A7.44,7.44,0,0,1,167.63,191.35Z"/><path class="cls-3" d="M217.83,196.09c.17-5,.41-9.94.47-14.91,0-1.73.68-2.46,2.33-2.6a29.61,29.61,0,0,0,2.93-.55c5.4-1,8,.31,9,4.47,1,4.38-1.08,7.81-5.72,9.29-.45-.22-.71-.06-.83.41-2.6.18-3.44,1.56-3.43,4.14,0,3.25-.48,3.39-3.93,2,0-.16,0-.33-.08-.49a3.54,3.54,0,0,1,.36-1.65c.16-.41-.64-.45-.26-.12s-.68.43-.22.26l-.38,0Z"/><path class="cls-3" d="M234.92,186.77a6.74,6.74,0,0,1-.13-1.1c.15-6.94,1.23-8,8.28-8.16,3.17-.06,5.16,1.59,6,4.56a7.82,7.82,0,0,1-3.16,8.84,6.82,6.82,0,0,1-2.72,1.15c-3.13.22-4.08,1.74-3.94,4.82.17,3.82-2.93,1.68-4.62,2.1,0,0-.15-.26-.1-.33a3,3,0,0,1,.44-.43,2.6,2.6,0,0,0,.64-.9C235.76,193.78,233.81,190.38,234.92,186.77Z"/><path class="cls-3" d="M256,192.36c1.82,2.12,4.16.69,6.23.8,1.84.09,3,.1,3,2.5-.05,2-.4,3.05-2.62,2.82a30.64,30.64,0,0,0-3.32,0c-2.91.83-5.24-.73-7.67-1.86-.85-3-.54-6-.18-9.07.45-11.94-1.42-9,9.24-10,1-.09,2,0,3-.11,1.41-.11,2.53,0,2.28,1.89-.19,1.38.44,3.07-1.95,3.29s-5.18-.3-7.35,1.53c-.57.81,0,1.64-.05,2.46C256.55,188.52,253.91,190.21,256,192.36Z"/><path class="cls-3" d="M143.6,199c-3.9.9-4.91-.27-4.61-4.49.32-4.55-2.61-8.66-4-13-.49-1.5-1-2.7,1.27-3.4,1.74-.55,2.67-.7,3.24,1.37a60.29,60.29,0,0,0,2.36,6l3.54-7.24a4.29,4.29,0,0,1,3.58,1.48c.19,3.39-2,5.95-3,8.94-1,.18-.27,1.1-.68,1.53l-.83,2.15C142.52,194.31,144.93,196.86,143.6,199Z"/><path class="cls-4" d="M151.31,181.13c-.59-2.52.23-3.67,3-3.56,3.23.13,6.47,0,9.71-.15,1.55-.06,2.68,0,2.53,2.1-.11,1.65-.21,3.08-2.37,2.82s-2.58.88-2.61,2.83c-.05,4-.51,7.94-.55,11.91,0,1.77-.74,2.15-2.21,2s-3.62.83-3-2.15a29.8,29.8,0,0,0-.59-13.89C154,182.33,152.37,182.28,151.31,181.13Z"/><path class="cls-5" d="M256,192.36c-1-.11-2.52.23-1.8-1.68.56-1.48,1.2-2.92,1.81-4.37.63-.64,1.56-.05,2.23-.55,1.36-.06,2.72-.24,4.07-.17,1.74.09,1.12,1.61,1.29,2.55.23,1.36-.5,1.76-1.84,2.1C259.79,190.75,257.12,189.59,256,192.36Z"/><path class="cls-6" d="M154.93,182.42c2,1.77,2.69,12.54.9,14.5,0-3.68-.06-7.37-.07-11,0-1.22.31-2.57-1.59-2.58C154.08,182.7,154.32,182.39,154.93,182.42Z"/><path class="cls-7" d="M234.92,186.77a19.12,19.12,0,0,0,1.47,7.43,3.6,3.6,0,0,1-.65,4.14,2.35,2.35,0,0,1-.28-1.72c0-.46-.65-.5-.29-.16s-.68.29-.18.29C233.53,193.43,234.46,190.1,234.92,186.77Z"/><path class="cls-8" d="M215.46,192.41c-1.86,1-3.25-1.16-5-.74-.58-.78-.65-1.38.53-1.56,1.33.56,2.81,2.53,3.24-1,.3-2.38,1.31-.33,2,.16C216.7,190.49,215.37,191.29,215.46,192.41Z"/><path class="cls-9" d="M251.4,187.53c.48,3.08-.66,6.31.82,9.3.95.71,1.46,1.43,0,2.14-1.23.24-1.51-.46-1.45-1.47C250.94,194.17,250.55,190.81,251.4,187.53Z"/><path class="cls-10" d="M252.22,199a1.76,1.76,0,0,0,0-2.14c2.88-1.78,4.39,2.35,7,1.63A19.75,19.75,0,0,1,252.22,199Z"/><path class="cls-11" d="M143.6,199c-.2-2-.46-4.09-.6-6.14-.09-1.4.76-.79,1.4-.55C144,194.49,145.63,196.94,143.6,199Z"/><path class="cls-12" d="M154.93,182.42l-.76.87c-1.7.27-3.74,1-2.86-2.16C152.66,181.16,154.1,180.92,154.93,182.42Z"/><path class="cls-13" d="M149,179.65c-1.51.27-2.51-.7-3.58-1.48,1.53-1.23,2.92-.47,4.3.32Z"/><path class="cls-14" d="M145.23,190.12c-.11-.69-1.71,0-1.16-1.24.42-.94,1.17-.49,1.84-.29A1.54,1.54,0,0,1,145.23,190.12Z"/><path class="cls-15" d="M258.23,185.76c-.61.72-1.43.61-2.23.55a2.43,2.43,0,0,1,.6-2.2A1.46,1.46,0,0,0,258.23,185.76Z"/><path class="cls-16" d="M226,192.2c-.15-.6-1-1.39,0-1.72.63-.19.74.72.79,1.31C226.71,192.26,226.38,192.29,226,192.2Z"/><path class="cls-17" d="M235,196.75c.06-.46,0-1.24.21-1.32.76-.3.55.49.58.81a18.44,18.44,0,0,1,0,2.1l-.75-.12Z"/><path class="cls-18" d="M217.83,196.09a2.35,2.35,0,0,1,.6-.07,1.84,1.84,0,0,1,.14,2.39l.06-.06C216.64,198.2,217.4,197.09,217.83,196.09Z"/><path class="cls-19" d="M105.45,182.72c.94-.09,6.75,3.74,6.72,4.28-.08,1.52-1.54,1.83-2.5,2.42-1.41.86-2.74,3.05-4.34,2.12-1.2-.7-.42-3-.37-4.56S104.21,183.86,105.45,182.72Z"/><path class="cls-20" d="M274.67,182.34c1.46-.2,2.34-.11,2.33,1.11,0,2.24-1.53,3.18-3.46,3.62-1.12.26-1.12-.51-1.11-1.32C272.46,183.88,272.65,182.16,274.67,182.34Z"/><path class="cls-21" d="M277.76,179.89a1.44,1.44,0,0,1-1.73.92c-.11,0-.29-.49-.21-.59C276.32,179.48,277,179.54,277.76,179.89Z"/><path class="cls-22" d="M192.11,187c-3,.76-2-1.4-2-2.79,0-2.31,2.15-2.15,3.23-1.95,2.58.47.82,2.18.55,3.42A2,2,0,0,1,192.11,187Z"/><path class="cls-23" d="M192.11,187l1.77-1.32c.5,1.27,1.6,2.38,1.23,4.14C193.26,189.56,193.45,187.44,192.11,187Z"/><path class="cls-24" d="M211,190.11a1.26,1.26,0,0,0-.53,1.56c-.3,1.09-.57,2.36-2,2.26-1.59-.11-1.45-1.61-1.42-2.61a50,50,0,0,1,.71-7c.2-1.14.5-2.86,2-2.75s1.38,1.83,1.41,3C211.19,186.4,211,188.25,211,190.11Z"/><path class="cls-25" d="M179.1,182.87c.45-.35.7-.69,1-.74s.47.35.71.54c-.25.21-.48.53-.76.59S179.53,183.06,179.1,182.87Z"/><path class="cls-26" d="M225.17,182.56c1.85-.16,2.46.74,2.4,2.21-.09,2.06-1.79,2.55-3.29,2.94-1.82.47-1.16-1.08-1.18-1.87C223.08,184.25,222.88,182.42,225.17,182.56Z"/><path class="cls-27" d="M218.57,198.41l-.14-2.39c.08-.48.17-1,.25-1.46C219.07,195.86,220,197.17,218.57,198.41Z"/><path class="cls-28" d="M239.07,188.32c1.26-2.62-.56-5.36,2.88-5.77,1.36-.16,2.16.38,2.2,1.76C244.26,187.27,241.92,187.28,239.07,188.32Z"/><path class="cls-29" d="M258.86,180c.36.27.9.5.89.69-.06.7-.69.42-1.1.43s-.84-.08-.62-.6C258.13,180.26,258.56,180.15,258.86,180Z"/></g></g></svg>